<svg xmlns="http://www.w3.org/2000/svg" width="128" height="128" viewBox="0 0 128 128">
  <rect width="128" height="128" rx="28" fill="#BD8A2E"/>
  <path d="M40 28h32l20 20v52a4 4 0 0 1-4 4H40a4 4 0 0 1-4-4V32a4 4 0 0 1 4-4z" fill="#fff"/>
  <path d="M72 28v16a4 4 0 0 0 4 4h16" fill="none" stroke="#BD8A2E" stroke-width="2.5" stroke-linejoin="round"/>
  <rect x="48" y="48" width="28" height="4" rx="2" fill="#BD8A2E" opacity="0.5"/>
  <rect x="48" y="58" width="40" height="3" rx="1.5" fill="#BD8A2E" opacity="0.3"/>
  <rect x="48" y="66" width="40" height="3" rx="1.5" fill="#BD8A2E" opacity="0.3"/>
  <rect x="48" y="74" width="40" height="3" rx="1.5" fill="#BD8A2E" opacity="0.3"/>
  <rect x="48" y="84" width="20" height="4" rx="2" fill="#BD8A2E"/>
  <rect x="70" y="84" width="18" height="4" rx="2" fill="#BD8A2E" opacity="0.6"/>
</svg>
